<?xml version="1.0" encoding="UTF-8"?>
<svg xmlns="http://www.w3.org/2000/svg" xmlns:xlink="http://www.w3.org/1999/xlink" 
     viewBox="0 0 842 595">

  <!-- ✅ Original Drawing Start -->
  <g id="original-drawing">
    <path transform="matrix(0,-.12,-.12,-0,794,581)" stroke-width="7" stroke-linecap="round" stroke-linejoin="round" fill="none" stroke="#000000" d="M236 5672V65H4487V6146H236V5672"/>
    <path transform="matrix(0,-.12,-.12,-0,794,581)" stroke-width="7" stroke-linecap="round" stroke-linejoin="round" fill="none" stroke="#000000" d="M4559 0V6211H164V0H4559"/>
    <path transform="matrix(0,-.12,-.12,-0,794,581)" stroke-width="6" stroke-linecap="round" stroke-linejoin="round" fill="none" stroke="#000000" d="M1841 5027V5443H2290V3863"/>
    <path transform="matrix(0,-.12,-.12,-0,794,581)" stroke-width="6" stroke-linecap="round" stroke-linejoin="round" fill="none" stroke="#000000" d="M2290 3640V1263H2451"/>
    <path transform="matrix(0,-.12,-.12,-0,794,581)" stroke-width="6" stroke-linecap="round" stroke-linejoin="round" fill="none" stroke="#000000" d="M2657 1141H2801V744"/>
    <path transform="matrix(0,-.12,-.12,-0,794,581)" stroke-width="6" stroke-linecap="round" stroke-linejoin="round" fill="none" stroke="#000000" d="M3130 2059H2823V1453H2657"/>
    <path transform="matrix(0,-.12,-.12,-0,794,581)" stroke-width="6" stroke-linecap="round" stroke-linejoin="round" fill="none" stroke="#000000" d="M3130 2392H2711"/>
    <path transform="matrix(0,-.12,-.12,-0,794,581)" stroke-width="6" stroke-linecap="round" stroke-linejoin="round" fill="none" stroke="#000000" d="M3336 2055H3504V1772"/>
    <path transform="matrix(0,-.12,-.12,-0,794,581)" stroke-width="6" stroke-linecap="round" stroke-linejoin="round" fill="none" stroke="#000000" d="M3347 1669H3218V1127"/>
    <path transform="matrix(0,-.12,-.12,-0,794,581)" stroke-width="6" stroke-linecap="round" stroke-linejoin="round" fill="none" stroke="#000000" d="M3913 1661H4045V783"/>
    <path transform="matrix(0,-.12,-.12,-0,794,581)" stroke-width="6" stroke-linecap="round" stroke-linejoin="round" fill="none" stroke="#000000" d="M3593 680H3425V451"/>
    <path transform="matrix(0,-.12,-.12,-0,794,581)" stroke-width="6" stroke-linecap="round" stroke-linejoin="round" fill="none" stroke="#000000" d="M4159 680H4259V1400"/>
    <path transform="matrix(0,-.12,-.12,-0,794,581)" stroke-width="6" stroke-linecap="round" stroke-linejoin="round" fill="none" stroke="#000000" d="M4262 1636V2062H4381"/>
    <path transform="matrix(0,-.12,-.12,-0,794,581)" stroke-width="6" stroke-linecap="round" stroke-linejoin="round" fill="none" stroke="#000000" d="M3336 2055H3504V1772"/>
    <path transform="matrix(0,-.12,-.12,-0,794,581)" stroke-width="6" stroke-linecap="round" stroke-linejoin="round" fill="none" stroke="#000000" d="M3347 1669H3218V1127"/>
    <path transform="matrix(0,-.12,-.12,-0,794,581)" stroke-width="6" stroke-linecap="round" stroke-linejoin="round" fill="none" stroke="#000000" d="M3913 1661H4045V783"/>
    <path transform="matrix(0,-.12,-.12,-0,794,581)" stroke-width="6" stroke-linecap="round" stroke-linejoin="round" fill="none" stroke="#000000" d="M3593 680H3425V451"/>
    <path transform="matrix(0,-.12,-.12,-0,794,581)" stroke-width="6" stroke-linecap="round" stroke-linejoin="round" fill="none" stroke="#000000" d="M4159 680H4259V1400"/>
    <path transform="matrix(0,-.12,-.12,-0,794,581)" stroke-width="6" stroke-linecap="round" stroke-linejoin="round" fill="none" stroke="#000000" d="M4262 1636V2062H4381"/>
    <path transform="matrix(0,-.12,-.12,-0,794,581)" stroke-width="6" stroke-linecap="round" stroke-linejoin="round" fill="none" stroke="#000000" d="M4390 2265V2507"/>
    <path transform="matrix(0,-.12,-.12,-0,794,581)" stroke-width="6" stroke-linecap="round" stroke-linejoin="round" fill="none" stroke="#000000" d="M4390 2705H4520V2977"/>
    <path transform="matrix(0,-.12,-.12,-0,794,581)" stroke-width="6" stroke-linecap="round" stroke-linejoin="round" fill="none" stroke="#000000" d="M4520 3204V3560"/>
    <path transform="matrix(0,-.12,-.12,-0,794,581)" stroke-width="6" stroke-linecap="round" stroke-linejoin="round" fill="none" stroke="#000000" d="M4520 3720V4000"/>
    <path transform="matrix(0,-.12,-.12,-0,794,581)" stroke-width="6" stroke-linecap="round" stroke-linejoin="round" fill="none" stroke="#000000" d="M4520 4150V4400"/>
    <path transform="matrix(0,-.12,-.12,-0,794,581)" stroke-width="6" stroke-linecap="round" stroke-linejoin="round" fill="none" stroke="#000000" d="M4520 4650V5000"/>
    <path transform="matrix(0,-.12,-.12,-0,794,581)" stroke-width="6" stroke-linecap="round" stroke-linejoin="round" fill="none" stroke="#000000" d="M4520 5250V5500"/>
    <path transform="matrix(0,-.12,-.12,-0,794,581)" stroke-width="6" stroke-linecap="round" stroke-linejoin="round" fill="none" stroke="#000000" d="M4520 5750V6000"/>
  </g>
  <!-- ✅ Added Clickable Damage Mechanism Numbers -->
  <g id="damage-numbers" font-size="14" font-family="Arial" fill="black">
    <text x="120" y="110">1</text>
    <text x="160" y="140">4</text>
    <text x="190" y="170">5</text>
    <text x="230" y="200">7</text>
    <text x="260" y="230">8</text>
    <text x="300" y="260">9</text>
    <text x="340" y="290">20</text>
    <text x="380" y="320">23</text>
    <text x="410" y="350">25</text>
    <text x="450" y="380">30</text>
    <text x="490" y="410">31</text>
    <text x="520" y="440">32</text>
    <text x="560" y="470">35</text>
    <text x="600" y="500">45</text>
    <text x="630" y="530">46</text>
  </g>
</svg>
